<?xml version="1.0" encoding="utf-8"?>
<!-- Generator: Adobe Illustrator 19.0.0, SVG Export Plug-In . SVG Version: 6.00 Build 0)  -->
<svg version="1.1" id="Calque_1" xmlns="http://www.w3.org/2000/svg" xmlns:xlink="http://www.w3.org/1999/xlink" x="0px" y="0px"
	 viewBox="0 0 841.9 841.9" style="enable-background:new 0 0 841.9 841.9;" xml:space="preserve">
<style type="text/css">
	.st0{fill:#010202;}
</style>
<path id="XMLID_15_" class="st0" d="M423.5,811.8c-9.3,0-16.9-7.6-16.9-16.9v-72.6c0-9.3,7.6-16.9,16.9-16.9
	c9.3,0,16.9,7.6,16.9,16.9v72.6C440.4,804.3,432.8,811.8,423.5,811.8z M610.8,763c-5.9,0-11.5-3-14.7-8.5l-36.3-62.9
	c-1.5-2.7-2.3-5.6-2.2-8.5c0-5.8,3-11.5,8.4-14.7c8.1-4.7,18.5-1.9,23.1,6.2l36.3,62.9c1.6,2.7,2.3,5.6,2.3,8.5
	c0,5.8-3,11.5-8.4,14.7C616.6,762.2,613.7,763,610.8,763z M236.8,760.5c-2.9,0-5.8-0.7-8.4-2.3c-5.4-3.1-8.4-8.8-8.4-14.7
	c0-2.9,0.7-5.8,2.3-8.5l36.3-62.9c4.7-8.1,15.1-10.9,23.1-6.2c5.4,3.1,8.4,8.8,8.4,14.7c0,2.9-0.7,5.8-2.3,8.5L251.5,752
	C248.4,757.5,242.7,760.5,236.8,760.5z M425.9,648.7c-125.5,0-227.7-102.2-227.7-227.7s102.1-227.7,227.7-227.7
	c125.6,0,227.7,102.2,227.7,227.7S551.5,648.7,425.9,648.7z M425.9,227.1c-106.9,0-193.9,87-193.9,193.9s87,193.9,193.9,193.9
	c106.9,0,193.9-87,193.9-193.9S532.9,227.1,425.9,227.1z M748.6,627c-2.9,0-5.8-0.7-8.4-2.3l-62.9-36.3c-5.4-3.1-8.4-8.8-8.4-14.7
	c0-2.9,0.7-5.8,2.3-8.5c4.7-8.1,15-10.9,23.1-6.2l62.9,36.3c5.4,3.1,8.4,8.8,8.4,14.7c0,2.9-0.7,5.8-2.3,8.5
	C760.1,623.9,754.4,627,748.6,627z M100.9,622.7c-5.9,0-11.5-3-14.7-8.5c-1.5-2.7-2.3-5.6-2.2-8.5c0-5.8,3-11.5,8.4-14.7l62.9-36.3
	c8.1-4.7,18.5-1.9,23.1,6.2c1.6,2.7,2.3,5.6,2.3,8.5c0,5.8-3,11.5-8.4,14.7l-62.9,36.3C106.7,622,103.7,622.7,100.9,622.7z
	 M799.9,440.3h-72.6c-9.3,0-16.9-7.6-16.9-16.9c0-9.3,7.6-16.9,16.9-16.9h72.6c9.3,0,16.9,7.6,16.9,16.9
	C816.8,432.7,809.3,440.3,799.9,440.3z M124.6,435.4H52c-9.3,0-16.9-7.6-16.9-16.9c0-9.3,7.6-16.9,16.9-16.9h72.6
	c9.3,0,16.9,7.6,16.9,16.9C141.5,427.8,133.9,435.4,124.6,435.4z M688.2,289.3c-5.9,0-11.5-3-14.7-8.5c-1.5-2.7-2.3-5.6-2.2-8.5
	c0-5.8,3-11.5,8.4-14.7l62.9-36.3c8.1-4.7,18.5-1.9,23.1,6.2c1.5,2.7,2.3,5.6,2.2,8.5c0,5.8-3,11.5-8.4,14.6L696.6,287
	C693.9,288.6,691,289.3,688.2,289.3z M166.2,285.1c-2.9,0-5.8-0.7-8.4-2.3l-62.9-36.3c-5.4-3.1-8.4-8.8-8.4-14.6
	c0-2.9,0.7-5.8,2.2-8.5c4.7-8.1,15-10.9,23.1-6.2l62.9,36.3c5.4,3.1,8.4,8.8,8.4,14.6c0,2.9-0.7,5.8-2.2,8.5
	C177.7,282,172,285.1,166.2,285.1z M578.7,178.1c-2.9,0-5.8-0.7-8.4-2.3c-5.4-3.1-8.4-8.8-8.4-14.7c0-2.9,0.7-5.8,2.3-8.5l36.3-62.9
	c4.7-8.1,15-10.9,23.1-6.2c5.4,3.1,8.4,8.8,8.4,14.7c0,2.9-0.7,5.8-2.3,8.5l-36.3,62.9C590.3,175.1,584.6,178.1,578.7,178.1z
	 M277.4,175.7c-5.9,0-11.5-3-14.7-8.5l-36.3-62.9c-1.6-2.7-2.3-5.6-2.3-8.5c0-5.8,3-11.5,8.4-14.7c8.1-4.7,18.5-1.9,23.1,6.2
	l36.3,62.9c1.5,2.7,2.3,5.6,2.2,8.5c0,5.8-3,11.5-8.4,14.7C283.2,174.9,280.3,175.7,277.4,175.7z M428.4,136.5
	c-9.3,0-16.9-7.6-16.9-16.9V47c0-9.3,7.6-16.9,16.9-16.9c9.3,0,16.9,7.6,16.9,16.9v72.6C445.3,128.9,437.7,136.5,428.4,136.5z"/>
</svg>
