<?xml version="1.0" encoding="utf-8"?>
<!-- Generator: Adobe Illustrator 19.0.0, SVG Export Plug-In . SVG Version: 6.00 Build 0)  -->
<svg version="1.1" id="Calque_1" xmlns="http://www.w3.org/2000/svg" xmlns:xlink="http://www.w3.org/1999/xlink" x="0px" y="0px"
	 viewBox="0 0 841.9 841.9" style="enable-background:new 0 0 841.9 841.9;" xml:space="preserve">
<style type="text/css">
	.st0{fill:#010202;}
</style>
<path id="XMLID_2_" class="st0" d="M432.3,810.7c-182.1,0-342.9-128.9-382.3-306.4c-6.2-27.9-9.3-56.5-9.3-85.1
	c0-181.6,128.4-342.3,305.4-382c7.6-1.7,15.6,1.4,20,7.8c4.4,6.5,4.5,14.9,0.2,21.5c-38,57.6-58.1,124.7-58.1,194.1
	c0,194.8,158.4,353.2,353.2,353.2c26.2,0,52.3-2.9,77.7-8.6c7.6-1.7,15.5,1.4,20,7.8c4.4,6.4,4.5,14.9,0.2,21.5
	c-57.5,87.3-149.1,148.9-251.2,169C483.4,808.2,457.9,810.7,432.3,810.7z M310,87.7C173.8,138.3,79.1,271,79.1,419.1
	c0,25.8,2.8,51.7,8.4,76.8C123,656.1,268,772.3,432.3,772.3c23.1,0,46.1-2.2,68.5-6.7c76.9-15.1,147.2-56.4,198.5-115.5
	c-12.6,1.2-25.2,1.8-37.9,1.8c-215.9,0-391.5-175.6-391.5-391.5C269.9,200.1,283.6,141.2,310,87.7z"/>
</svg>
