<svg version="1.1" xmlns="http://www.w3.org/2000/svg" xmlns:xlink="http://www.w3.org/1999/xlink" x="0px" y="0px"
	 viewBox="0 0 841.9 841.9" style="enable-background:new 0 0 841.9 841.9;" xml:space="preserve">
<path id="XMLID_3_" class="st0" d="M559.8,713H179.5c-66.6,0-120.8-50.2-120.8-111.9c0-59,49.6-107.5,112.2-111.6
	c7.7-92.7,91.8-165.8,194.1-165.8c76.1,0,143.8,39.8,175.9,102.5c6.2-0.7,12.5-1,18.8-1c85.9,0,155.8,64.6,155.8,143.9
	C715.6,648.4,645.7,713,559.8,713z M179.5,521.4c-48.9,0-88.6,35.8-88.6,79.7c0,44,39.8,79.7,88.6,79.7h380.3
	c68.2,0,123.7-50.1,123.7-111.8c0-61.6-55.5-111.8-123.7-111.8c-8.6,0-17.1,0.8-25.3,2.4c-7.5,1.3-14.8-2.6-17.8-9.5
	c-24-56.4-85-94.3-151.7-94.3c-89.6,0-162.5,66.1-162.5,147.3l0,2.2c0,4.4-1.8,8.7-5,11.8c-3.2,3.1-7.6,4.6-12,4.4
	C183.5,521.5,181.5,521.4,179.5,521.4z"/>
<path id="XMLID_2_" class="st0" d="M716.3,556.5c-6.7,0-13-4.2-15.2-10.9c-2.9-8.4,1.7-17.6,10.1-20.4c42.3-14.3,70.7-51.3,70.7-92
	c0-54.2-48.9-98.3-109-98.3c-2.4,0-4.8,0.1-7.2,0.2c-4.5,0.2-8.9-1.3-12.1-4.4c-3.2-3.1-5-7.4-5-11.9l0-2.8
	c0-98.5-88.5-178.8-197.2-178.8c-80.8,0-154.8,46-183.9,114.5c-2.9,7-10.4,10.8-17.8,9.5c-10-1.9-20.4-2.9-30.8-2.9
	c-83.1,0-150.8,61.3-150.8,136.6c0,37.8,16.6,72.9,46.9,98.9c6.7,5.8,7.5,15.9,1.7,22.7c-5.8,6.8-16,7.5-22.7,1.7
	c-36.9-31.8-58-76.7-58-123.3c0-93,82.1-168.7,182.9-168.7c8.1,0,16.3,0.5,24.3,1.5C280.6,152.7,360.9,105,451.4,105
	c121.6,0,221.4,87.6,228.9,197.8c74.4,3.6,133.7,60.7,133.7,130.3c0,54.5-37.2,103.8-92.5,122.5C719.8,556.2,718,556.5,716.3,556.5z
	"/>
</svg>
