<svg version="1.1" xmlns="http://www.w3.org/2000/svg" xmlns:xlink="http://www.w3.org/1999/xlink" x="0px" y="0px"
	 viewBox="0 0 841.9 841.9" style="enable-background:new 0 0 841.9 841.9;" xml:space="preserve">
<path id="XMLID_8_" class="st0" d="M145.1,766.5c-2.7,0-5.4-0.7-8-2.1c-7.7-4.4-10.3-14.2-5.9-21.9l95.7-166.9
	c4.4-7.7,14.1-10.4,21.9-5.9c7.7,4.4,10.3,14.2,5.9,21.9l-95.7,166.9C156.1,763.6,150.7,766.5,145.1,766.5z"/>
<path id="XMLID_5_" class="st0" d="M629.5,524.3H173.9c-78,0-141.5-58.7-141.5-130.8c0-69.9,59.5-127.1,134.2-130.7
	c7.6-110.7,107.7-198.5,229.6-198.5c90.8,0,171.4,47.9,209,123c8.1-1,16.2-1.5,24.4-1.5c101.2,0,183.5,75.9,183.5,169.2
	S730.7,524.3,629.5,524.3z M173.9,294.7c-60.4,0-109.5,44.3-109.5,98.7s49.1,98.7,109.5,98.7h455.6c83.5,0,151.4-61.5,151.4-137.1
	S713,217.9,629.5,217.9c-10.4,0-20.8,1-30.9,2.9c-7.4,1.4-14.8-2.5-17.7-9.5C551.5,142.6,477.3,96.4,396.2,96.4
	c-109.2,0-198,80.6-198,179.7l0,2.6c0.1,4.5-1.7,8.8-4.9,11.8c-3.2,3.1-7.6,4.8-12.1,4.4C178.8,294.8,176.4,294.7,173.9,294.7z"/>
<path id="XMLID_4_" class="st0" d="M262.8,765.1c-2.7,0-5.4-0.7-8-2.1c-7.7-4.4-10.3-14.2-5.9-21.9l92.4-161.2
	c4.4-7.7,14.2-10.4,21.9-5.9c7.7,4.4,10.3,14.2,5.9,21.9l-92.4,161.2C273.8,762.2,268.4,765.1,262.8,765.1z"/>
<path id="XMLID_3_" class="st0" d="M377.2,765.1c-2.7,0-5.4-0.7-8-2.1c-7.7-4.4-10.3-14.2-5.9-21.9l92.4-161.2
	c4.4-7.7,14.1-10.4,21.9-5.9c7.7,4.4,10.3,14.2,5.9,21.9l-92.4,161.2C388.1,762.2,382.7,765.1,377.2,765.1z"/>
<path id="XMLID_2_" class="st0" d="M491.5,765.1c-2.7,0-5.4-0.7-8-2.1c-7.7-4.4-10.3-14.2-5.9-21.9l92.4-161.2
	c4.4-7.7,14.1-10.4,21.9-5.9c7.7,4.4,10.3,14.2,5.9,21.9l-92.4,161.2C502.5,762.2,497.1,765.1,491.5,765.1z"/>
</svg>
