<svg version="1.1" xmlns="http://www.w3.org/2000/svg" xmlns:xlink="http://www.w3.org/1999/xlink" x="0px" y="0px"
	 viewBox="0 0 841.9 841.9" style="enable-background:new 0 0 841.9 841.9;" xml:space="preserve">
<path id="XMLID_5_" class="st0" d="M813,355.1"/>
<path id="XMLID_18_" class="st0" d="M615.8,405.1c-3.8,0-7.7-1.4-10.8-4.1c-6.6-6-7.2-16.1-1.2-22.8c21.9-24.4,32.6-57.1,29.2-89.8
	c-3.2-30.9-18.3-58.6-42.4-78.1c-24.1-19.5-54.5-28.5-85.2-25.3c-50.9,5.3-92.9,44.1-102.2,94.3c-1.6,8.8-10.2,14.6-18.8,12.9
	c-8.8-1.6-14.5-10-12.9-18.8C383.4,209.3,437.1,159.8,502,153c39.5-4.1,78.1,7.4,108.9,32.3s50,60.4,54.1,99.8
	c4.3,41.7-9.2,83.5-37.3,114.7C624.6,403.3,620.2,405.1,615.8,405.1z"/>
<path id="XMLID_17_" class="st0" d="M497.5,109.2c-8.2,0-15.1-6.2-16-14.4l-5.2-49.9c-0.1-0.6-0.1-1.1-0.1-1.7
	c0-8.1,6.1-15.1,14.4-16c8.7-0.9,16.8,5.5,17.7,14.4l5.2,49.9c0.1,0.6,0.1,1.1,0.1,1.7c0,8.1-6.1,15.1-14.4,16
	C498.6,109.2,498,109.2,497.5,109.2z"/>
<path id="XMLID_16_" class="st0" d="M396.5,147c-5,0-9.9-2.3-13.1-6.7l-29.5-40.6c-2.1-2.9-3.1-6.2-3.1-9.4c0-5,2.3-9.9,6.6-13.1
	c7.2-5.2,17.3-3.6,22.5,3.6l29.5,40.6c2.1,2.9,3.1,6.2,3.1,9.4c0,5-2.3,9.9-6.6,13.1C403,146,399.7,147,396.5,147z"/>
<path id="XMLID_15_" class="st0" d="M327.8,230.3c-2.2,0-4.4-0.4-6.6-1.4l-45.8-20.5c-6-2.7-9.6-8.6-9.5-14.7c0-2.2,0.4-4.4,1.4-6.5
	c3.6-8.1,13.2-11.7,21.3-8.2l45.8,20.5c6,2.7,9.6,8.6,9.5,14.7c0,2.2-0.4,4.4-1.4,6.5C339.9,226.7,334,230.3,327.8,230.3z"/>
<path id="XMLID_14_" class="st0" d="M752.9,423.5c-2.2,0-4.4-0.4-6.6-1.4l-45.8-20.4c-6-2.7-9.6-8.6-9.5-14.7c0-2.2,0.4-4.4,1.4-6.5
	c3.6-8.1,13.2-11.7,21.3-8.2l45.8,20.4c6,2.7,9.6,8.6,9.5,14.7c0,2.2-0.4,4.4-1.4,6.5C765,419.9,759.1,423.5,752.9,423.5z"/>
<path id="XMLID_13_" class="st0" d="M724.9,296.7c-8.2,0-15.1-6.2-16-14.4c-0.1-0.6-0.1-1.1-0.1-1.7c0-8.1,6.1-15.1,14.4-16
	l49.9-5.2c8.7-0.9,16.8,5.5,17.7,14.4c0.1,0.6,0.1,1.1,0.1,1.7c0,8.1-6.1,15.1-14.4,16l-49.9,5.2C726,296.6,725.4,296.7,724.9,296.7
	z"/>
<path id="XMLID_12_" class="st0" d="M687.1,195.6c-5,0-9.9-2.3-13.1-6.7c-2.1-2.9-3.1-6.2-3.1-9.4c0-5,2.3-9.9,6.6-13.1l40.6-29.5
	c7.2-5.2,17.2-3.6,22.5,3.6c2.1,2.9,3.1,6.2,3.1,9.4c0,5-2.3,9.9-6.6,13.1l-40.6,29.5C693.7,194.6,690.4,195.6,687.1,195.6z"/>
<path id="XMLID_10_" class="st0" d="M603.9,127c-2.2,0-4.4-0.4-6.6-1.4c-6-2.7-9.6-8.6-9.5-14.7c0-2.2,0.4-4.4,1.4-6.5l20.5-45.8
	c3.6-8.1,13.2-11.8,21.3-8.2c6,2.7,9.6,8.6,9.5,14.7c0,2.2-0.4,4.4-1.4,6.5l-20.5,45.8C615.9,123.5,610,127,603.9,127z"/>
<path id="XMLID_9_" class="st0" d="M143.4,828.3c-2.7,0-5.5-0.7-8-2.1c-7.7-4.4-10.4-14.3-6-22l75.5-131.7c4.4-7.7,14.2-10.4,22-6
	c7.7,4.4,10.4,14.3,6,22l-75.5,131.7C154.4,825.4,149,828.3,143.4,828.3z"/>
<path id="XMLID_6_" class="st0" d="M525.7,637.1H166.1C102.6,637.1,51,589.3,51,530.4c0-56,46.8-102.1,106.1-106.4
	c7.6-87.7,87.4-156.9,184.4-156.9c72.1,0,136.3,37.6,166.9,96.9c5.7-0.6,11.5-0.9,17.3-0.9c81.8,0,148.3,61.5,148.3,137
	S607.5,637.1,525.7,637.1z M166.1,455.9c-45.7,0-82.9,33.4-82.9,74.5s37.2,74.5,82.9,74.5h359.6c64,0,116.1-47,116.1-104.8
	s-52.1-104.8-116.1-104.8c-8,0-16,0.7-23.8,2.2c-7.3,1.4-14.8-2.6-17.8-9.5c-22.6-53-79.9-88.6-142.6-88.6
	c-84.3,0-152.8,62.1-152.8,138.4c0,4.4-1.8,9.8-5,12.8c-3.2,3-7.6,5.7-12,5.5C169.9,456,168,455.9,166.1,455.9z"/>
<path id="XMLID_4_" class="st0" d="M248.9,827.2c-2.7,0-5.5-0.7-8-2.1c-7.7-4.4-10.4-14.3-6-22l72.9-127.3c4.4-7.7,14.2-10.4,22-6
	c7.7,4.4,10.4,14.3,6,22l-72.9,127.3C259.9,824.3,254.5,827.2,248.9,827.2z"/>
<path id="XMLID_3_" class="st0" d="M351.9,827.2c-2.7,0-5.5-0.7-8-2.1c-7.7-4.4-10.4-14.3-6-22l72.9-127.3c4.4-7.7,14.2-10.4,22-6
	c7.7,4.4,10.4,14.3,6,22l-72.9,127.3C362.9,824.3,357.5,827.2,351.9,827.2z"/>
<path id="XMLID_2_" class="st0" d="M454.9,827.2c-2.7,0-5.5-0.7-8-2.1c-7.7-4.4-10.4-14.3-6-22l72.9-127.3c4.4-7.7,14.2-10.4,22-6
	c7.7,4.4,10.4,14.3,6,22l-72.9,127.3C465.9,824.3,460.5,827.2,454.9,827.2z"/>
</svg>
