<svg version="1.1" xmlns="http://www.w3.org/2000/svg" xmlns:xlink="http://www.w3.org/1999/xlink" x="0px" y="0px"
	 viewBox="0 0 841.9 841.9" style="enable-background:new 0 0 841.9 841.9;" xml:space="preserve">
<path id="XMLID_9_" class="st0" d="M632.6,465c-7.1,0-13.5-5-14.9-12.3c-1.6-8.3,3.7-16.3,12-17.9c41-8.1,78.8-29.1,107.6-59.2
	c-4.2,0.2-8.3,0.3-12.5,0.3c-129,0-234-105-234-234c0-32.6,6.7-64.6,19.7-94C437,79.5,386.7,153.2,386.7,235.1
	c0,14.9,1.6,29.8,4.8,44.3c1.8,8.2-3.4,16.4-11.6,18.2c-8.2,1.8-16.4-3.4-18.2-11.6c-3.7-16.6-5.5-33.7-5.5-50.9
	c0-108.5,76.8-204.5,182.5-228.3c6.1-1.3,12.4,1.1,15.9,6.2c3.5,5.1,3.6,11.9,0.2,17.1C532.9,63.3,521.3,102,521.3,142
	c0,112.2,91.3,203.4,203.5,203.4c15.1,0,30.2-1.7,44.8-4.9c6.1-1.3,12.4,1.1,15.9,6.2c3.5,5.1,3.6,11.9,0.2,17.1
	c-34.4,52.2-89.1,89-150.1,101C634.6,464.9,633.6,465,632.6,465z"/>
<path id="XMLID_8_" class="st0" d="M328.9,752c-2.6,0-5.2-0.6-7.6-2c-7.3-4.2-9.8-13.5-5.7-20.8l49.1-85.6
	c4.2-7.3,13.5-9.8,20.8-5.7c7.3,4.2,9.8,13.5,5.7,20.8l-49.1,85.6C339.3,749.3,334.1,752,328.9,752z"/>
<path id="XMLID_7_" class="st0" d="M370.1,838.1c-2.6,0-5.2-0.6-7.6-2c-7.3-4.2-9.8-13.5-5.7-20.8l67.5-117.8
	c4.2-7.3,13.5-9.9,20.8-5.7c7.3,4.2,9.8,13.5,5.7,20.8l-67.5,117.8C380.5,835.4,375.4,838.1,370.1,838.1z"/>
<path id="XMLID_6_" class="st0" d="M503.9,752c-2.6,0-5.2-0.6-7.6-2c-7.3-4.2-9.8-13.5-5.7-20.8l49.1-85.6
	c4.2-7.3,13.5-9.9,20.8-5.7c7.3,4.2,9.8,13.5,5.7,20.8l-49.1,85.6C514.4,749.3,509.2,752,503.9,752z"/>
<path id="XMLID_5_" class="st0" d="M510.8,612.7H400.4c-8.4,0-15.3-6.8-15.3-15.3c0-8.4,6.8-15.3,15.3-15.3h110.4
	c60.6,0,109.9-44.5,109.9-99.3c0-54.7-49.3-99.3-109.9-99.3c-7.6,0-15.2,0.7-22.5,2.1c-7,1.3-14.1-2.4-16.9-9
	c-21.4-50.2-75.7-83.9-135.1-83.9c-79.8,0-144.7,58.8-144.7,131.1c0,4.2-1.7,9.3-4.8,12.2c-3.1,2.9-7.2,5.4-11.4,5.2
	c-44.6-2.7-83.8,29.9-83.8,70.4c0,26.8,16.6,51,43.3,63.1c7.7,3.5,11.1,12.5,7.6,20.2c-3.5,7.7-12.5,11.1-20.2,7.6
	c-37.8-17.1-61.2-51.9-61.2-90.9c0-53.1,44.4-96.7,100.5-100.8c7.2-83.1,82.8-148.6,174.7-148.6c68.3,0,129,35.6,158.1,91.8
	c5.4-0.6,10.9-0.9,16.4-0.9c77.4,0,140.4,58.2,140.4,129.8S588.2,612.7,510.8,612.7z"/>
<path id="XMLID_2_" class="st0" d="M152,838.9c-2.7,0-5.5-0.7-8-2.3c-6.4-3.9-9-12-6.1-19l68.3-160.9l-52.7,0.8
	c-5.6,0.3-10.1-2.5-12.9-6.8c-2.9-4.3-3.3-9.8-1.3-14.6l86.5-196.9c2.4-5.5,7.9-9.1,13.9-9.1l111.5-0.3c0,0,0,0,0,0
	c5.6,0,10.8,3.1,13.5,8.1c2.7,5,2.3,11-0.8,15.7l-80.7,119.4l66.6,0.3c5.9,0,11.3,3.5,13.8,8.9c2.5,5.4,1.6,11.7-2.2,16.2
	l-197.7,235C160.7,837,156.4,838.9,152,838.9z M229.4,625.9c5.1,0,9.8,2.5,12.7,6.7c2.9,4.3,3.4,9.7,1.4,14.5l-37.7,89l111.3-132.4
	l-62.6-0.3c-5.6,0-10.8-3.2-13.4-8.1c-2.6-5-2.3-11,0.8-15.7l80.6-119.2l-72.7,0.2l-73,166l52.4-0.8
	C229.3,625.9,229.4,625.9,229.4,625.9z"/>
</svg>
