<svg version="1.1" xmlns="http://www.w3.org/2000/svg" xmlns:xlink="http://www.w3.org/1999/xlink" x="0px" y="0px"
	 viewBox="0 0 841.9 841.9" style="enable-background:new 0 0 841.9 841.9;" xml:space="preserve">
<path id="XMLID_3_" class="st0" d="M625.5,470.5c-7.1,0-13.4-5-14.8-12.2c-1.6-8.2,3.7-16.2,11.9-17.8c40.7-8,78.1-28.8,106.7-58.7
	c-4.1,0.2-8.3,0.3-12.4,0.3c-127.9,0-232-104.1-232-232c0-32.4,6.7-64,19.5-93.2c-72.8,31.3-122.7,104.4-122.7,185.6
	c0,14.8,1.6,29.5,4.8,43.9c1.8,8.2-3.3,16.2-11.5,18c-8.2,1.8-16.2-3.4-18-11.5c-3.6-16.5-5.5-33.5-5.5-50.4
	c0-107.6,76.1-202.8,181-226.3c6-1.3,12.3,1.1,15.8,6.2s3.6,11.8,0.2,16.9c-21.7,32.9-33.2,71.3-33.2,110.9
	c0,111.2,90.5,201.7,201.7,201.7c15,0,29.9-1.6,44.4-4.9c6-1.3,12.3,1.1,15.8,6.2c3.5,5.1,3.6,11.8,0.2,16.9
	c-34.1,51.7-88.3,88.2-148.8,100.1C627.4,470.4,626.4,470.5,625.5,470.5z"/>
<path id="XMLID_2_" class="st0" d="M235.4,616.9h-68.5c-59.6,0-108.1-45-108.1-100.2c0-52.6,44-95.9,99.7-99.9
	c7.2-82.3,82.1-147.3,173.2-147.3c67.7,0,128,35.3,156.8,91c5.4-0.6,10.8-0.9,16.2-0.9c76.8,0,139.2,57.7,139.2,128.7
	c0,49.7-30,94.1-78.4,115.8c-7.6,3.4-16.6,0-20-7.6c-3.4-7.6,0-16.6,7.6-20c37.4-16.8,60.6-50.6,60.6-88.2
	c0-54.3-48.9-98.4-109-98.4c-7.5,0-15,0.7-22.3,2.1c-6.9,1.4-13.9-2.4-16.7-8.9c-21.2-49.8-75-83.2-133.9-83.2
	c-79.1,0-143.5,58.3-143.5,130c0,4.2-1.7,9.2-4.8,12.1c-3,2.9-7.2,5.2-11.3,5.1c-1.7-0.1-3.4-0.2-5.2-0.2c-42.9,0-77.9,31.4-77.9,70
	s34.9,70,77.9,70h68.5c8.4,0,15.1,6.8,15.1,15.1S243.8,616.9,235.4,616.9z"/>
<path id="XMLID_11_" class="st0" d="M257.1,826c-8.4,0-15.1-6.8-15.1-15.1v-45.6l-39.5,22.8c-7.3,4.1-16.5,1.7-20.7-5.5
	c-4.2-7.2-1.7-16.5,5.5-20.7l39.5-22.8l-39.5-22.8c-7.2-4.2-9.7-13.4-5.5-20.7c4.2-7.2,13.5-9.7,20.7-5.5l39.5,22.8v-45.6
	c0-8.4,6.8-15.1,15.1-15.1c8.4,0,15.1,6.8,15.1,15.1v45.6l39.5-22.8c7.2-4.2,16.5-1.7,20.7,5.5c4.2,7.2,1.7,16.5-5.5,20.7
	l-39.5,22.8l39.5,22.8c7.2,4.2,9.7,13.4,5.5,20.7c-4.2,7.2-13.4,9.7-20.7,5.5l-39.5-22.8v45.6C272.2,819.2,265.4,826,257.1,826z
	 M422.8,713.8c-8.4,0-15.1-6.8-15.1-15.1v-45.6l-39.5,22.8c-7.2,4.2-16.5,1.7-20.7-5.5c-4.2-7.2-1.7-16.5,5.5-20.7l39.5-22.8
	l-39.5-22.8c-7.2-4.2-9.7-13.4-5.5-20.7c4.2-7.2,13.5-9.7,20.7-5.5l39.5,22.8v-45.6c0-8.4,6.8-15.1,15.1-15.1s15.1,6.8,15.1,15.1
	v45.6l39.5-22.8c7.3-4.2,16.5-1.7,20.7,5.5c4.2,7.2,1.7,16.5-5.5,20.7l-39.5,22.8l39.5,22.8c7.2,4.2,9.7,13.4,5.5,20.7
	c-4.2,7.2-13.4,9.7-20.7,5.5l-39.5-22.8v45.6C437.9,707.1,431.2,713.8,422.8,713.8z M310.4,560.8c-8.4,0-15.1-6.8-15.1-15.1v-45.6
	l-39.5,22.8c-7.2,4.1-16.5,1.7-20.7-5.5c-4.2-7.2-1.7-16.5,5.5-20.7l39.5-22.8l-39.5-22.8c-7.2-4.2-9.7-13.4-5.5-20.7
	c4.2-7.2,13.5-9.7,20.7-5.5l39.5,22.8v-45.6c0-8.4,6.8-15.1,15.1-15.1s15.1,6.8,15.1,15.1v45.6l39.5-22.8c7.2-4.2,16.5-1.7,20.7,5.5
	c4.2,7.2,1.7,16.5-5.5,20.7l-39.5,22.8l39.5,22.8c7.2,4.2,9.7,13.4,5.5,20.7c-4.2,7.3-13.5,9.7-20.7,5.5l-39.5-22.8v45.6
	C325.5,554,318.8,560.8,310.4,560.8z"/>
</svg>
