<svg version="1.1" xmlns="http://www.w3.org/2000/svg" xmlns:xlink="http://www.w3.org/1999/xlink" x="0px" y="0px"
	 viewBox="0 0 841.9 841.9" style="enable-background:new 0 0 841.9 841.9;" xml:space="preserve">
<path id="XMLID_11_" class="st0" d="M437.8,589.4c-0.3,0-0.6,0-0.9,0c-39.6-0.2-79.5-11.1-115.4-31.5l-13.3-7.6
	c-28.6-13.7-59.3-20.9-89.9-21c-36.2-0.2-72.8,9.7-105.7,28.5c-6.9,3.9-15.1,0.2-18.3-8.3c-3.2-8.5-0.2-18.6,6.7-22.6
	c36.5-20.8,77.1-31.7,117.3-31.6c39.6,0.2,79.5,11.1,115.4,31.5l13.3,7.6c28.6,13.7,59.3,20.9,89.9,21c0.3,0,0.5,0,0.8,0
	c35.3,0,70.8-9.4,102.9-27.4l-0.1-0.2c36.3-20.7,76.5-31.6,116.5-31.6c0.3,0,0.6,0,0.9,0c39.6,0.2,79.5,11.1,115.4,31.5
	c6.9,3.9,9.9,14,6.7,22.6c-3.2,8.5-11.4,12.2-18.3,8.3c-32.4-18.4-68.3-28.3-104-28.4c-0.3,0-0.5,0-0.8,0
	c-35.3,0-70.8,9.4-102.9,27.4l0.1,0.2C518,578.5,477.7,589.4,437.8,589.4z"/>
<path id="XMLID_13_" class="st0" d="M438.1,409.4c-0.3,0-0.6,0-0.9,0c-39.6-0.2-79.5-11.1-115.4-31.5l-13.3-7.6
	c-28.6-13.7-59.3-20.9-89.9-21c-36.3-0.2-72.8,9.7-105.7,28.5c-6.9,3.9-15.1,0.2-18.3-8.3c-3.2-8.5-0.2-18.6,6.7-22.6
	c36.3-20.7,76.5-31.6,116.5-31.6c0.3,0,0.6,0,0.9,0c39.6,0.2,79.5,11.1,115.4,31.5l13.3,7.6c28.6,13.7,59.3,20.9,89.9,21
	c0.3,0,0.5,0,0.8,0c35.3,0,70.8-9.4,102.9-27.4l-0.1-0.2c36.3-20.7,76.5-31.6,116.5-31.6c0.3,0,0.6,0,0.9,0
	c39.6,0.2,79.5,11.1,115.4,31.5c6.9,3.9,9.9,14,6.7,22.6c-3.2,8.5-11.4,12.2-18.3,8.3c-32.4-18.4-68.3-28.3-104-28.4
	c-0.3,0-0.5,0-0.8,0c-35.3,0-70.8,9.4-102.9,27.4l0.1,0.2C518.3,398.5,478,409.4,438.1,409.4z"/>
<path id="XMLID_14_" class="st0" d="M438.1,499.4c-0.3,0-0.6,0-0.9,0c-39.6-0.2-79.5-11.1-115.4-31.5l-13.3-7.6
	c-28.6-13.7-59.3-20.9-89.9-21c-36.3-0.1-72.8,9.7-105.7,28.5c-6.9,3.9-15.1,0.2-18.3-8.3c-3.2-8.5-0.2-18.6,6.7-22.6
	c36.5-20.8,77.1-31.7,117.3-31.6c39.6,0.2,79.5,11.1,115.4,31.5l13.3,7.6c28.6,13.7,59.3,20.9,89.9,21c0.3,0,0.5,0,0.8,0
	c35.3,0,70.8-9.4,102.9-27.4l-0.1-0.2c36.3-20.7,76.5-31.6,116.5-31.6c0.3,0,0.6,0,0.9,0c39.6,0.2,79.5,11.1,115.4,31.5
	c6.9,3.9,9.9,14,6.7,22.6c-3.2,8.5-11.4,12.2-18.3,8.3c-32.4-18.4-68.3-28.3-104-28.4c-0.3,0-0.5,0-0.8,0
	c-35.3,0-70.8,9.4-102.9,27.4l0.1,0.2C518.3,488.5,478,499.4,438.1,499.4z"/>
<path id="XMLID_15_" class="st0" d="M437.8,319.4c-0.3,0-0.6,0-0.9,0c-39.6-0.2-79.5-11.1-115.4-31.5l-13.3-7.6
	c-28.6-13.7-59.3-20.9-89.9-21c-36.2-0.1-72.8,9.7-105.7,28.5c-6.9,3.9-15.1,0.2-18.3-8.3c-3.2-8.5-0.2-18.6,6.7-22.6
	c36.5-20.8,77.1-31.7,117.3-31.6c39.6,0.2,79.5,11.1,115.4,31.5l13.3,7.6c28.6,13.7,59.3,20.9,89.9,21c0.3,0,0.5,0,0.8,0
	c35.3,0,70.8-9.4,102.9-27.4l-0.1-0.2c36.3-20.7,76.5-31.6,116.5-31.6c0.3,0,0.6,0,0.9,0c39.6,0.2,79.5,11.1,115.4,31.5
	c6.9,3.9,9.9,14,6.7,22.6c-3.2,8.5-11.4,12.2-18.3,8.3c-32.4-18.4-68.3-28.3-104-28.4c-0.3,0-0.5,0-0.8,0
	c-35.3,0-70.8,9.4-102.9,27.4l0.1,0.2C518,308.5,477.7,319.4,437.8,319.4z"/>
</svg>
