<svg version="1.1" xmlns="http://www.w3.org/2000/svg" xmlns:xlink="http://www.w3.org/1999/xlink" x="0px" y="0px"
	 viewBox="0 0 841.9 841.9" style="enable-background:new 0 0 841.9 841.9;" xml:space="preserve">
<path id="XMLID_10_" class="st0" d="M577.8,714.4H188c-67.3,0-122.1-50.7-122.1-113c0-60,50.9-109.3,114.8-112.8
	c7-94.9,92.9-169.9,197.4-169.9c77.8,0,146.9,40.9,179.3,105.2c6.7-0.8,13.5-1.2,20.3-1.2c87.1,0,158,65.4,158,145.8
	S664.9,714.4,577.8,714.4z M188,518c-51,0-92.6,37.4-92.6,83.4c0,46,41.5,83.4,92.6,83.4h389.8c70.8,0,128.5-52.2,128.5-116.3
	s-57.6-116.3-128.5-116.3c-8.9,0-17.7,0.8-26.3,2.4c-6.7,1.2-13.6-2.3-16.3-8.7c-24.9-58.4-88-97.7-157-97.7
	c-92.8,0-168.3,68.5-168.3,152.7l0,2.2c0.1,4.1-1.6,8.1-4.6,10.9c-3,2.8-6.9,4.4-11.1,4.1C192.2,518.1,190.1,518,188,518z"/>
<path id="XMLID_9_" class="st0" d="M622.4,445.2c-3.5,0-7.1-1.2-9.9-3.8c-6.1-5.5-6.6-14.8-1.1-20.9c20.1-22.4,29.9-52.4,26.8-82.4
	c-3-28.3-16.8-53.7-38.9-71.7c-22.1-17.9-49.9-26.1-78.2-23.2c-46.7,4.9-85.2,40.5-93.7,86.5c-1.5,8-9.4,13.3-17.2,11.8
	c-8-1.5-13.3-9.2-11.8-17.2c10.9-58.9,60.1-104.3,119.7-110.5c36.2-3.7,71.7,6.7,99.9,29.6c28.2,22.9,45.9,55.4,49.6,91.6
	c4,38.3-8.5,76.6-34.2,105.2C630.5,443.6,626.5,445.2,622.4,445.2z"/>
<path id="XMLID_8_" class="st0" d="M513.9,173.8c-7.5,0-13.9-5.6-14.7-13.2l-4.8-45.8c-0.1-0.5-0.1-1-0.1-1.6
	c0-7.5,5.6-13.9,13.2-14.7c8-1,15.4,5,16.2,13.2l4.8,45.8c0.1,0.5,0.1,1,0.1,1.6c0,7.5-5.6,13.9-13.2,14.7
	C514.9,173.7,514.4,173.8,513.9,173.8z"/>
<path id="XMLID_7_" class="st0" d="M421.2,208.4c-4.6,0-9.1-2.1-12-6.1l-27-37.3c-1.9-2.6-2.8-5.7-2.8-8.7c0-4.6,2.1-9.1,6.1-12
	c6.6-4.8,15.8-3.3,20.6,3.3l27,37.3c1.9,2.6,2.8,5.7,2.8,8.7c0,4.6-2.1,9.1-6.1,12C427.3,207.5,424.2,208.4,421.2,208.4z"/>
<path id="XMLID_6_" class="st0" d="M358.3,284.8c-2,0-4.1-0.4-6-1.3l-42.1-18.8c-5.5-2.4-8.8-7.9-8.8-13.5c0-2,0.4-4,1.3-6
	c3.3-7.5,12.1-10.8,19.5-7.5l42.1,18.8c5.5,2.4,8.8,7.9,8.8,13.5c0,2-0.4,4-1.3,6C369.3,281.5,363.9,284.8,358.3,284.8z"/>
<path id="XMLID_5_" class="st0" d="M748.3,462.1c-2,0-4.1-0.4-6-1.3L700.2,442c-5.5-2.4-8.8-7.9-8.8-13.5c0-2,0.4-4,1.3-6
	c3.3-7.5,12.1-10.8,19.5-7.5l42.1,18.8c5.5,2.4,8.8,7.9,8.8,13.5c0,2-0.4,4-1.3,6C759.3,458.8,753.9,462.1,748.3,462.1z"/>
<path id="XMLID_4_" class="st0" d="M722.5,345.7c-7.5,0-13.9-5.6-14.7-13.2c-0.1-0.5-0.1-1-0.1-1.6c0-7.5,5.6-13.9,13.2-14.7
	l45.8-4.8c7.9-0.9,15.4,5,16.2,13.2c0.1,0.5,0.1,1,0.1,1.6c0,7.5-5.6,13.9-13.2,14.7l-45.8,4.8C723.6,345.7,723,345.7,722.5,345.7z"
	/>
<path id="XMLID_3_" class="st0" d="M687.9,253c-4.6,0-9.1-2.1-12-6.1c-1.9-2.6-2.8-5.7-2.8-8.7c0-4.6,2.1-9.1,6.1-12l37.3-27.1
	c6.6-4.8,15.8-3.3,20.6,3.3c1.9,2.6,2.8,5.7,2.8,8.7c0,4.6-2.1,9.1-6.1,12l-37.3,27.1C693.9,252.1,690.9,253,687.9,253z"/>
<path id="XMLID_2_" class="st0" d="M611.5,190.1c-2,0-4.1-0.4-6-1.3c-5.5-2.4-8.8-7.9-8.8-13.5c0-2,0.4-4,1.3-6l18.8-42.1
	c3.3-7.5,12.1-10.8,19.5-7.5c5.5,2.4,8.8,7.9,8.8,13.5c0,2-0.4,4-1.3,6L625,181.3C622.5,186.9,617.2,190.1,611.5,190.1z"/>
</svg>
