<?xml version="1.0" encoding="utf-8"?>
<!-- Generator: Adobe Illustrator 19.0.0, SVG Export Plug-In . SVG Version: 6.00 Build 0)  -->
<svg version="1.1" id="Calque_1" xmlns="http://www.w3.org/2000/svg" xmlns:xlink="http://www.w3.org/1999/xlink" x="0px" y="0px"
	 viewBox="0 0 841.9 841.9" style="enable-background:new 0 0 841.9 841.9;" xml:space="preserve">
<style type="text/css">
	.st0{fill:#010202;}
</style>
<path id="XMLID_10_" class="st0" d="M577.8,714.4H188"/>
<path id="XMLID_5_" class="st0" d="M421.4,779C251.7,779,102,659,65.3,493.6c-5.7-26-8.7-52.7-8.7-79.3
	c0-169.2,119.6-318.8,284.5-355.8c7.1-1.6,14.5,1.3,18.6,7.3c4.1,6,4.2,13.9,0.2,20c-35.4,53.7-54.1,116.2-54.1,180.8
	c0,8,0.3,16,0.9,23.9c30.1-52,89.6-87.5,157.8-87.5c69,0,130.5,35.7,160.5,92.1c5-0.5,10-0.7,15-0.7c79.3,0,143.8,59.7,143.8,133.1
	S719.3,560.4,640,560.4H486.7c67,33.9,146.3,43.7,220.5,27.1c7.1-1.5,14.5,1.3,18.6,7.3c4.1,6,4.2,13.9,0.2,20
	c-53.6,81.3-138.9,138.7-234,157.4C468.9,776.7,445.1,779,421.4,779z M307.5,105.6C180.6,152.7,92.4,276.3,92.4,414.3
	c0,24.1,2.6,48.1,7.8,71.6C133.3,635,268.3,743.3,421.4,743.3c21.4,0,42.9-2.1,63.9-6.2c71.6-14.1,137.1-52.5,184.9-107.6
	c-89.6,8.7-178.9-15.8-251.3-69.1H297.4c-61.9,0-112.2-46.7-112.2-104.2c0-52.1,41.4-95.4,95.3-103c-6.9-28.3-10.4-57.4-10.4-86.7
	C270.1,210.2,282.9,155.4,307.5,105.6z M297.4,387.8c-42.2,0-76.5,30.7-76.5,68.5s34.3,68.5,76.5,68.5H640
	c59.6,0,108.1-43.7,108.1-97.3S699.6,330,640,330c-7.5,0-15,0.7-22.2,2.1c-8.1,1.5-16.5-2.8-19.7-10.6
	c-21.1-49.6-74.8-82.9-133.6-82.9c-78.9,0-143.1,58-143.1,129.4c0,4.9-2,10.7-5.6,14.1c-3.6,3.4-8.9,6.3-13.3,5.9
	C300.8,387.8,299.1,387.8,297.4,387.8z"/>
</svg>
