<svg version="1.1" xmlns="http://www.w3.org/2000/svg" xmlns:xlink="http://www.w3.org/1999/xlink" x="0px" y="0px"
	 viewBox="0 0 841.9 841.9" style="enable-background:new 0 0 841.9 841.9;" xml:space="preserve">
<path id="XMLID_3_" class="st0" d="M632.4,663.5H166.7c-79.8,0-144.7-60-144.7-133.7c0-71.4,60.9-130,137.2-133.6
	c7.8-113.2,110.1-202.9,234.7-202.9c9.1,0,16.4,7.3,16.4,16.4c0,9.1-7.3,16.4-16.4,16.4c-111.6,0-202.4,82.4-202.4,183.7l0,2.6
	c0.1,4.5-1.8,8.9-5,12.1c-3.3,3.2-7.7,4.9-12.3,4.5c-2.5-0.1-5-0.2-7.5-0.2c-61.7,0-111.9,45.3-111.9,101S105,630.7,166.7,630.7
	h465.7c85.3,0,154.8-62.9,154.8-140.2c0-9.1,7.3-16.4,16.4-16.4c9.1,0,16.4,7.3,16.4,16.4C820,585.9,735.9,663.5,632.4,663.5z"/>
<path id="XMLID_2_" class="st0" d="M803.6,506.9c-9.1,0-16.4-7.3-16.4-16.4c0-77.3-69.4-140.2-154.8-140.2c-10.7,0-21.3,1-31.6,2.9
	c-7.6,1.5-15.1-2.6-18.1-9.7C552.7,273.3,476.8,226,393.9,226c-9.1,0-16.4-7.3-16.4-16.4c0-9.1,7.3-16.4,16.4-16.4
	c92.8,0,175.2,48.9,213.6,125.8c8.2-1,16.6-1.5,24.9-1.5c103.4,0,187.6,77.6,187.6,173C820,499.6,812.7,506.9,803.6,506.9z"/>
</svg>
