<svg version="1.1" xmlns="http://www.w3.org/2000/svg" xmlns:xlink="http://www.w3.org/1999/xlink" x="0px" y="0px"
	 viewBox="0 0 841.9 841.9" style="enable-background:new 0 0 841.9 841.9;" xml:space="preserve">
<path id="XMLID_8_" class="st0" d="M640.7,530.7H484.5c-9.4,0-17-7.6-17-17c0-9.4,7.6-17,17-17h156.2c88.3,0,160.2-65.1,160.2-145.1
	c0-80-71.9-145.1-160.2-145.1c-11.1,0-22.1,1-32.7,3c-7.9,1.5-15.6-2.7-18.7-10c-31-72.7-109.5-121.6-195.4-121.6
	c-115.5,0-209.5,85.3-209.5,190.2l0,2.8c0.1,4.7-1.8,9.2-5.2,12.5c-3.4,3.2-8,4.9-12.7,4.7c-2.6-0.1-5.2-0.2-7.8-0.2
	c-63.8,0-115.8,46.9-115.8,104.5c0,39.8,24.5,75.6,64,93.5c8.5,3.9,12.3,13.9,8.5,22.5c-3.9,8.5-13.9,12.3-22.5,8.5
	C41.1,493.2,8.9,445.5,8.9,392.2c0-73.9,63-134.5,142-138.2c8-117.1,113.9-210.1,242.9-210.1c96.1,0,181.4,50.7,221.1,130.2
	c8.5-1,17.2-1.6,25.8-1.6c107.1,0,194.1,80.3,194.1,179.1C834.9,450.3,747.8,530.7,640.7,530.7z"/>
<path id="XMLID_5_" class="st0" d="M163.2,793.5c-3,0-6.1-0.8-8.9-2.5c-7.2-4.4-10-13.4-6.7-21.1l75.9-179l-58.6,0.9
	c-5.6,0.3-11.2-2.8-14.4-7.6c-3.2-4.8-3.7-10.9-1.4-16.2l96.2-219c2.7-6.1,8.8-10.1,15.5-10.2l124.1-0.3c0,0,0,0,0,0
	c6.3,0,12,3.5,15,9c3,5.5,2.6,12.3-0.9,17.5l-89.8,132.8l74.1,0.3c6.6,0,12.6,3.9,15.3,9.9c2.8,6,1.8,13-2.4,18.1l-220,261.5
	C172.8,791.4,168,793.5,163.2,793.5z M249.3,556.5c5.6,0,10.9,2.8,14.1,7.5c3.2,4.8,3.8,10.8,1.5,16.1l-42,99l123.9-147.3l-69.6-0.3
	c-6.3,0-12-3.5-14.9-9c-2.9-5.5-2.6-12.3,0.9-17.4l89.7-132.6l-80.9,0.2l-81.2,184.7l58.3-0.9C249.1,556.5,249.2,556.5,249.3,556.5z
	"/>
<path id="XMLID_4_" class="st0" d="M349.2,781.4c-2.9,0-5.8-0.7-8.4-2.3c-8.1-4.7-10.9-15-6.3-23.2l97.8-170.6
	c4.6-8.2,15-11,23.2-6.3c8.1,4.7,10.9,15,6.3,23.2L364,772.9C360.8,778.3,355.1,781.4,349.2,781.4z"/>
<path id="XMLID_3_" class="st0" d="M470.2,781.4c-2.9,0-5.8-0.7-8.4-2.3c-8.1-4.7-10.9-15-6.3-23.2l97.8-170.6
	c4.7-8.2,15-11,23.2-6.3c8.1,4.7,10.9,15,6.3,23.2L485,772.9C481.8,778.3,476.1,781.4,470.2,781.4z"/>
<path id="XMLID_2_" class="st0" d="M591.3,781.4c-2.9,0-5.8-0.7-8.4-2.3c-8.1-4.7-10.9-15-6.3-23.2l97.8-170.6
	c4.7-8.2,15-11,23.2-6.3c8.1,4.7,10.9,15,6.3,23.2L606,772.9C602.9,778.3,597.2,781.4,591.3,781.4z"/>
</svg>
