<svg version="1.1" xmlns="http://www.w3.org/2000/svg" xmlns:xlink="http://www.w3.org/1999/xlink" x="0px" y="0px"
	 viewBox="0 0 841.9 841.9" style="enable-background:new 0 0 841.9 841.9;" xml:space="preserve">
<path id="XMLID_6_" class="st0" d="M480.1,640.1c-9,0-16.2-7.3-16.2-16.2V575l-42.3,24.4c-7.8,4.4-17.7,1.8-22.2-5.9
	c-4.5-7.8-1.8-17.7,5.9-22.2l42.3-24.4l-42.3-24.5c-7.8-4.5-10.4-14.4-5.9-22.2c4.5-7.8,14.5-10.4,22.2-5.9l42.3,24.4v-48.9
	c0-9,7.3-16.2,16.2-16.2s16.2,7.3,16.2,16.2v48.9l42.3-24.4c7.8-4.5,17.7-1.8,22.2,5.9c4.5,7.8,1.8,17.7-5.9,22.2l-42.3,24.5
	l42.3,24.4c7.8,4.5,10.4,14.4,5.9,22.2c-4.5,7.7-14.3,10.4-22.2,5.9L496.3,575v48.9C496.3,632.9,489.1,640.1,480.1,640.1z"/>
<path id="XMLID_2_" class="st0" d="M632.6,525.9c-9,0-16.2-7.3-16.2-16.2c0-9,7.3-16.2,16.2-16.2c84.5,0,153.2-62.3,153.2-138.8
	s-68.7-138.8-153.2-138.8c-10.5,0-21.1,1-31.3,2.9c-7.5,1.4-14.9-2.6-17.9-9.6C553.7,139.7,478.6,92.9,396.5,92.9
	c-110.4,0-200.3,81.6-200.3,181.9l0,2.6c0.1,4.5-1.7,8.8-5,12c-3.2,3.1-7.5,5-12.2,4.5c-2.5-0.1-5-0.2-7.5-0.2
	c-61.1,0-110.7,44.8-110.7,99.9s49.7,99.9,110.7,99.9h79.1c9,0,16.2,7.3,16.2,16.2c0,9-7.3,16.2-16.2,16.2h-79.1
	c-79,0-143.2-59.4-143.2-132.4c0-70.7,60.3-128.6,135.8-132.2c7.7-112.1,109-200.9,232.3-200.9c91.9,0,173.5,48.5,211.4,124.5
	c8.1-1,16.4-1.5,24.7-1.5c102.4,0,185.7,76.8,185.7,171.2S735,525.9,632.6,525.9z"/>
<path id="XMLID_8_" class="st0" d="M302.3,760.5c-9,0-16.2-7.3-16.2-16.2v-48.9l-42.3,24.4c-7.8,4.5-17.7,1.8-22.2-5.9
	c-4.5-7.8-1.8-17.7,5.9-22.2l42.3-24.5l-42.3-24.4c-7.8-4.5-10.4-14.4-5.9-22.2c4.5-7.8,14.5-10.4,22.2-5.9l42.3,24.4v-48.9
	c0-9,7.3-16.2,16.2-16.2c9,0,16.2,7.3,16.2,16.2v48.9l42.4-24.4c7.7-4.5,17.7-1.8,22.2,5.9c4.5,7.8,1.8,17.7-5.9,22.2l-42.3,24.4
	l42.3,24.5c7.8,4.5,10.4,14.4,5.9,22.2s-14.4,10.4-22.2,5.9l-42.4-24.4v48.9C318.5,753.2,311.2,760.5,302.3,760.5z M359.5,475.9
	c-9,0-16.2-7.3-16.2-16.2v-48.9l-42.3,24.4c-7.8,4.4-17.7,1.8-22.2-5.9c-4.5-7.8-1.8-17.7,5.9-22.2l42.3-24.5l-42.3-24.5
	c-7.8-4.5-10.4-14.4-5.9-22.2c4.5-7.8,14.5-10.4,22.2-5.9l42.3,24.4v-48.9c0-9,7.3-16.2,16.2-16.2s16.2,7.3,16.2,16.2v48.9
	l42.4-24.5c7.7-4.5,17.7-1.8,22.2,5.9c4.5,7.8,1.8,17.7-5.9,22.2L392,382.6l42.3,24.5c7.8,4.5,10.4,14.4,5.9,22.2
	c-4.5,7.8-14.4,10.4-22.2,5.9l-42.4-24.4v48.9C375.7,468.6,368.5,475.9,359.5,475.9z"/>
</svg>
